<svg width="560" height="500" viewBox="0 0 560 500" fill="none" xmlns="http://www.w3.org/2000/svg">
<g clip-path="url(#clip0_413_863)">
<path d="M560 440C560 473.137 533.137 500 500 500L0 500L4.37114e-05 -4.89568e-05L500 -5.24537e-06C533.137 -2.34843e-06 560 26.8629 560 60L560 440Z" fill="url(#paint0_linear_413_863)"/>
<g opacity="0.2">
<rect x="473" y="-400" width="1" height="900" fill="url(#paint1_linear_413_863)"/>
<rect x="354" y="-400" width="1" height="900" fill="url(#paint2_linear_413_863)"/>
<rect x="236" y="-400" width="1" height="900" fill="url(#paint3_linear_413_863)"/>
<rect x="117" y="-400" width="1" height="900" fill="url(#paint4_linear_413_863)"/>
</g>
</g>
<defs>
<linearGradient id="paint0_linear_413_863" x1="560" y1="250" x2="2.23772e-05" y2="250" gradientUnits="userSpaceOnUse">
<stop stop-color="#349E77"/>
<stop offset="1" stop-color="#57BC97"/>
</linearGradient>
<linearGradient id="paint1_linear_413_863" x1="473.5" y1="-400" x2="473.5" y2="500" gradientUnits="userSpaceOnUse">
<stop stop-color="#EAEAEA"/>
<stop offset="1" stop-color="white" stop-opacity="0"/>
</linearGradient>
<linearGradient id="paint2_linear_413_863" x1="354.5" y1="-400" x2="354.5" y2="500" gradientUnits="userSpaceOnUse">
<stop stop-color="#EAEAEA"/>
<stop offset="1" stop-color="white" stop-opacity="0"/>
</linearGradient>
<linearGradient id="paint3_linear_413_863" x1="236.5" y1="-400" x2="236.5" y2="500" gradientUnits="userSpaceOnUse">
<stop stop-color="#EAEAEA"/>
<stop offset="1" stop-color="white" stop-opacity="0"/>
</linearGradient>
<linearGradient id="paint4_linear_413_863" x1="117.5" y1="-400" x2="117.5" y2="500" gradientUnits="userSpaceOnUse">
<stop stop-color="#EAEAEA"/>
<stop offset="1" stop-color="white" stop-opacity="0"/>
</linearGradient>
<clipPath id="clip0_413_863">
<rect width="560" height="500" fill="white" transform="translate(560 500) rotate(-180)"/>
</clipPath>
</defs>
</svg>
