<svg width="208" height="60" viewBox="0 0 208 60" fill="none" xmlns="http://www.w3.org/2000/svg">
<rect x="11.1631" y="20.2325" width="16.7442" height="26.0465" fill="#4BAC88"/>
<path d="M29.3606 15H25.0001V11.25C25.0001 10.56 24.4401 10 23.7501 10H16.2501C15.5601 10 15.0001 10.56 15.0001 11.25V15H10.6396C9.26215 15 8.13965 16.1225 8.13965 17.5V47.5C8.13965 48.9025 9.23715 50 10.6396 50H29.3606C30.7631 50 31.8606 48.9025 31.8606 47.5V17.5C31.8606 16.0975 30.7631 15 29.3606 15ZM20.0001 42.5V35H15.0001L20.0001 22.5V30H25.0001L20.0001 42.5Z" fill="black"/>
<path d="M54.352 29.952H66.484V34.488H54.352V29.952ZM54.784 40.32H68.5V45H48.988V19.8H68.032V24.48H54.784V40.32ZM80.3488 45L69.4768 19.8H75.7768L85.2808 42.12H81.5728L91.2208 19.8H97.0168L86.1088 45H80.3488Z" fill="#4BAC88"/>
<path d="M109.843 45V19.8H115.675V40.248H128.311V45H109.843ZM140.249 45.288C138.185 45.288 136.349 44.856 134.741 43.992C133.157 43.128 131.897 41.952 130.961 40.464C130.049 38.952 129.593 37.236 129.593 35.316C129.593 33.372 130.049 31.656 130.961 30.168C131.897 28.656 133.157 27.48 134.741 26.64C136.349 25.776 138.185 25.344 140.249 25.344C142.289 25.344 144.113 25.776 145.721 26.64C147.329 27.48 148.589 28.644 149.501 30.132C150.413 31.62 150.869 33.348 150.869 35.316C150.869 37.236 150.413 38.952 149.501 40.464C148.589 41.952 147.329 43.128 145.721 43.992C144.113 44.856 142.289 45.288 140.249 45.288ZM140.249 40.68C141.185 40.68 142.025 40.464 142.769 40.032C143.513 39.6 144.101 38.988 144.533 38.196C144.965 37.38 145.181 36.42 145.181 35.316C145.181 34.188 144.965 33.228 144.533 32.436C144.101 31.644 143.513 31.032 142.769 30.6C142.025 30.168 141.185 29.952 140.249 29.952C139.313 29.952 138.473 30.168 137.729 30.6C136.985 31.032 136.385 31.644 135.929 32.436C135.497 33.228 135.281 34.188 135.281 35.316C135.281 36.42 135.497 37.38 135.929 38.196C136.385 38.988 136.985 39.6 137.729 40.032C138.473 40.464 139.313 40.68 140.249 40.68ZM166.187 45V41.22L165.827 40.392V33.624C165.827 32.424 165.455 31.488 164.711 30.816C163.991 30.144 162.875 29.808 161.363 29.808C160.331 29.808 159.311 29.976 158.303 30.312C157.319 30.624 156.479 31.056 155.783 31.608L153.767 27.684C154.823 26.94 156.095 26.364 157.583 25.956C159.071 25.548 160.583 25.344 162.119 25.344C165.071 25.344 167.363 26.04 168.995 27.432C170.627 28.824 171.443 30.996 171.443 33.948V45H166.187ZM160.283 45.288C158.771 45.288 157.475 45.036 156.395 44.532C155.315 44.004 154.487 43.296 153.911 42.408C153.335 41.52 153.047 40.524 153.047 39.42C153.047 38.268 153.323 37.26 153.875 36.396C154.451 35.532 155.351 34.86 156.575 34.38C157.799 33.876 159.395 33.624 161.363 33.624H166.511V36.9H161.975C160.655 36.9 159.743 37.116 159.239 37.548C158.759 37.98 158.519 38.52 158.519 39.168C158.519 39.888 158.795 40.464 159.347 40.896C159.923 41.304 160.703 41.508 161.687 41.508C162.623 41.508 163.463 41.292 164.207 40.86C164.951 40.404 165.491 39.744 165.827 38.88L166.691 41.472C166.283 42.72 165.539 43.668 164.459 44.316C163.379 44.964 161.987 45.288 160.283 45.288ZM184.982 45.288C183.158 45.288 181.514 44.88 180.05 44.064C178.586 43.224 177.422 42.06 176.558 40.572C175.718 39.084 175.298 37.332 175.298 35.316C175.298 33.276 175.718 31.512 176.558 30.024C177.422 28.536 178.586 27.384 180.05 26.568C181.514 25.752 183.158 25.344 184.982 25.344C186.614 25.344 188.042 25.704 189.266 26.424C190.49 27.144 191.438 28.236 192.11 29.7C192.782 31.164 193.118 33.036 193.118 35.316C193.118 37.572 192.794 39.444 192.146 40.932C191.498 42.396 190.562 43.488 189.338 44.208C188.138 44.928 186.686 45.288 184.982 45.288ZM185.954 40.68C186.866 40.68 187.694 40.464 188.438 40.032C189.182 39.6 189.77 38.988 190.202 38.196C190.658 37.38 190.886 36.42 190.886 35.316C190.886 34.188 190.658 33.228 190.202 32.436C189.77 31.644 189.182 31.032 188.438 30.6C187.694 30.168 186.866 29.952 185.954 29.952C185.018 29.952 184.178 30.168 183.434 30.6C182.69 31.032 182.09 31.644 181.634 32.436C181.202 33.228 180.986 34.188 180.986 35.316C180.986 36.42 181.202 37.38 181.634 38.196C182.09 38.988 182.69 39.6 183.434 40.032C184.178 40.464 185.018 40.68 185.954 40.68ZM191.03 45V41.04L191.138 35.28L190.778 29.556V18.288H196.394V45H191.03Z" fill="black"/>
</svg>
