<svg width="108" height="28" viewBox="0 0 108 28" fill="none" xmlns="http://www.w3.org/2000/svg">
<path d="M14 28C21.732 28 28 21.732 28 14C28 6.26801 21.732 0 14 0C6.26802 0 0 6.26801 0 14C0 21.732 6.26802 28 14 28Z" fill="#4BAC88"/>
<path d="M15.082 12.0952C15.3109 11.8297 15.5032 11.5733 15.7321 11.3444C16.4285 10.6778 17.3595 10.3126 18.3234 10.328C18.8735 10.3171 19.4223 10.385 19.9532 10.5295C20.5093 10.6816 21.0132 10.983 21.4102 11.401C21.8073 11.819 22.0824 12.3378 22.2057 12.901C22.4366 13.7975 22.5384 14.7225 22.5078 15.6479C22.5078 17.5798 22.5078 19.521 22.5078 21.453C22.5078 21.6361 22.462 21.6819 22.2789 21.6819H19.2939C19.1108 21.6819 19.0742 21.6269 19.0742 21.4621C19.0742 19.6309 19.0742 17.7996 19.0742 15.9683C19.0942 15.4821 19.048 14.9954 18.9368 14.5216C18.8533 14.1473 18.6338 13.8174 18.3208 13.5958C18.0078 13.3742 17.6237 13.2766 17.2429 13.3222C16.9926 13.3059 16.7416 13.3411 16.5055 13.4258C16.2694 13.5105 16.0532 13.6428 15.8704 13.8145C15.6875 13.9863 15.5419 14.1937 15.4425 14.424C15.3431 14.6543 15.2921 14.9026 15.2926 15.1534C15.2561 15.4389 15.2378 15.7263 15.2377 16.0141C15.2377 17.8454 15.2377 19.5942 15.2377 21.3889C15.2377 21.5628 15.2377 21.6178 15.0088 21.6178H11.9964C11.8407 21.6178 11.7949 21.572 11.7949 21.4072V10.8591C11.7949 10.6851 11.8499 10.6485 12.0147 10.6485H14.8714C15.0546 10.6485 15.1004 10.7035 15.0912 10.8683C15.0729 11.2437 15.082 11.6649 15.082 12.0952Z" fill="white"/>
<path d="M9.61368 16.1421C9.61368 17.891 9.61368 19.649 9.61368 21.3978C9.61368 21.5993 9.5679 21.6542 9.36646 21.6542H6.37234C6.21668 21.6542 6.1709 21.6084 6.1709 21.4436V10.7948C6.1709 10.6483 6.1709 10.6025 6.36319 10.6025H9.39392C9.58621 10.6025 9.61368 10.6758 9.61368 10.8406C9.61368 12.6078 9.61368 14.3749 9.61368 16.1421Z" fill="white"/>
<path d="M9.88983 7.0779C9.89155 7.47319 9.77533 7.86 9.55602 8.18888C9.33671 8.51776 9.02428 8.77374 8.6587 8.9241C8.29312 9.07446 7.891 9.11235 7.50377 9.03294C7.11653 8.95353 6.76179 8.76042 6.4849 8.4783C6.20801 8.19619 6.02157 7.8379 5.9494 7.44925C5.87724 7.0606 5.92265 6.65926 6.07981 6.29655C6.23698 5.93384 6.49875 5.62626 6.83167 5.41314C7.16459 5.20001 7.55351 5.09103 7.9487 5.10014C8.46611 5.11206 8.95845 5.32539 9.32097 5.69476C9.6835 6.06412 9.88759 6.56036 9.88983 7.0779Z" fill="white"/>
<path d="M54 28C61.732 28 68 21.732 68 14C68 6.26801 61.732 0 54 0C46.268 0 40 6.26801 40 14C40 21.732 46.268 28 54 28Z" fill="#1E1E1E"/>
<path d="M55.5545 12.7491L61.635 5.83301H60.1941L54.9145 11.8381L50.6976 5.83301H45.834L52.2107 14.9138L45.834 22.1663H47.2749L52.8504 15.8247L57.3037 22.1663H62.1673L55.5542 12.7491H55.5545ZM53.581 14.9938L52.9349 14.0896L47.7941 6.89441H50.0074L54.156 12.7011L54.8021 13.6054L60.1948 21.1532H57.9816L53.581 14.9941V14.9938Z" fill="white"/>
<path d="M94 28C101.732 28 108 21.732 108 14C108 6.26801 101.732 0 94 0C86.268 0 80 6.26801 80 14C80 21.732 86.268 28 94 28Z" fill="#1E1E1E"/>
<path d="M98.336 8.70843C98.1428 8.70874 97.9541 8.76702 97.7944 8.87572C97.6346 8.98443 97.5112 9.13857 97.44 9.3182C97.3688 9.49783 97.3531 9.69469 97.395 9.88332C97.4369 10.0719 97.5345 10.2437 97.675 10.3763C97.8156 10.5088 97.9927 10.5962 98.1834 10.6271C98.3742 10.6579 98.5698 10.6308 98.745 10.5493C98.9202 10.4678 99.0668 10.3356 99.1661 10.1698C99.2653 10.004 99.3125 9.81221 99.3016 9.61929C99.3018 9.49494 99.2765 9.37185 99.2274 9.25762C99.1782 9.14339 99.1062 9.04043 99.0157 8.95509C98.9253 8.86976 98.8183 8.80385 98.7014 8.76142C98.5845 8.719 98.4602 8.70097 98.336 8.70843Z" fill="white"/>
<path d="M94.0638 9.93726C93.2639 9.93726 92.482 10.1744 91.8169 10.6188C91.1518 11.0632 90.6335 11.6948 90.3274 12.4338C90.0213 13.1728 89.9412 13.986 90.0972 14.7705C90.2533 15.555 90.6385 16.2756 91.2041 16.8412C91.7697 17.4068 92.4903 17.792 93.2748 17.948C94.0593 18.1041 94.8725 18.024 95.6114 17.7179C96.3504 17.4118 96.9821 16.8934 97.4264 16.2284C97.8708 15.5633 98.108 14.7814 98.108 13.9815C98.108 12.9089 97.6819 11.8802 96.9235 11.1218C96.165 10.3633 95.1364 9.93726 94.0638 9.93726ZM94.0638 16.5684C93.5521 16.5684 93.052 16.4166 92.6266 16.1324C92.2012 15.8481 91.8696 15.4441 91.6738 14.9714C91.478 14.4988 91.4268 13.9786 91.5266 13.4768C91.6264 12.975 91.8728 12.5141 92.2346 12.1523C92.5964 11.7905 93.0573 11.5442 93.5591 11.4443C94.0609 11.3445 94.581 11.3958 95.0537 11.5916C95.5264 11.7873 95.9304 12.1189 96.2147 12.5443C96.4989 12.9697 96.6506 13.4699 96.6506 13.9815C96.6482 14.6668 96.3749 15.3234 95.8903 15.808C95.4057 16.2926 94.7491 16.566 94.0638 16.5684Z" fill="white"/>
<path d="M97.2692 22.188H90.7201C89.4123 22.188 88.158 21.6691 87.2324 20.7452C86.3068 19.8213 85.7856 18.5679 85.7832 17.2602V10.702C85.7856 9.39419 86.3068 8.14081 87.2324 7.21693C88.158 6.29305 89.4123 5.77417 90.7201 5.77417H97.2692C98.5761 5.77417 99.8295 6.29335 100.754 7.21748C101.678 8.14162 102.197 9.39502 102.197 10.702V17.2602C102.197 18.5671 101.678 19.8205 100.754 20.7446C99.8295 21.6688 98.5761 22.188 97.2692 22.188ZM90.7201 7.31353C89.8222 7.31594 88.9617 7.6737 88.3268 8.30863C87.6918 8.94356 87.3341 9.80403 87.3317 10.702V17.2602C87.3341 18.1573 87.6921 19.0168 88.3273 19.6503C88.9625 20.2838 89.823 20.6395 90.7201 20.6395H97.2692C98.1663 20.6395 99.0268 20.2838 99.662 19.6503C100.297 19.0168 100.655 18.1573 100.658 17.2602V10.702C100.655 9.80403 100.297 8.94356 99.6625 8.30863C99.0276 7.6737 98.1671 7.31594 97.2692 7.31353H90.7201Z" fill="white"/>
</svg>
