<svg width="120" height="74" viewBox="0 0 120 74" fill="none" xmlns="http://www.w3.org/2000/svg">
<path d="M30.9 73.2C25.1667 73.2 20.0333 71.8 15.5 69C10.9667 66.1333 7.4 62 4.8 56.6C2.2 51.2 0.9 44.6667 0.9 37C0.9 29.3333 2.2 22.8 4.8 17.4C7.4 12 10.9667 7.9 15.5 5.1C20.0333 2.23333 25.1667 0.799999 30.9 0.799999C36.7 0.799999 41.8333 2.23333 46.3 5.1C50.8333 7.9 54.4 12 57 17.4C59.6 22.8 60.9 29.3333 60.9 37C60.9 44.6667 59.6 51.2 57 56.6C54.4 62 50.8333 66.1333 46.3 69C41.8333 71.8 36.7 73.2 30.9 73.2ZM30.9 59.5C33.6333 59.5 36 58.7333 38 57.2C40.0667 55.6667 41.6667 53.2333 42.8 49.9C44 46.5667 44.6 42.2667 44.6 37C44.6 31.7333 44 27.4333 42.8 24.1C41.6667 20.7667 40.0667 18.3333 38 16.8C36 15.2667 33.6333 14.5 30.9 14.5C28.2333 14.5 25.8667 15.2667 23.8 16.8C21.8 18.3333 20.2 20.7667 19 24.1C17.8667 27.4333 17.3 31.7333 17.3 37C17.3 42.2667 17.8667 46.5667 19 49.9C20.2 53.2333 21.8 55.6667 23.8 57.2C25.8667 58.7333 28.2333 59.5 30.9 59.5ZM90.4945 73.2C85.6279 73.2 80.7945 72.5667 75.9945 71.3C71.1945 69.9667 67.1279 68.1 63.7945 65.7L70.0945 53.3C72.7612 55.2333 75.8612 56.7667 79.3945 57.9C82.9279 59.0333 86.4945 59.6 90.0945 59.6C94.1612 59.6 97.3612 58.8 99.6945 57.2C102.028 55.6 103.195 53.4 103.195 50.6C103.195 47.9333 102.161 45.8333 100.095 44.3C98.0279 42.7667 94.6945 42 90.0945 42H82.6945V31.3L102.195 9.2L103.995 15H67.2945V2H116.295V12.5L96.8945 34.6L88.6945 29.9H93.3945C101.995 29.9 108.495 31.8333 112.895 35.7C117.295 39.5667 119.495 44.5333 119.495 50.6C119.495 54.5333 118.461 58.2333 116.395 61.7C114.328 65.1 111.161 67.8667 106.895 70C102.628 72.1333 97.1612 73.2 90.4945 73.2Z" fill="#E7E7E7"/>
</svg>
