<svg width="90" height="139" viewBox="0 0 90 139" fill="none" xmlns="http://www.w3.org/2000/svg">
<g filter="url(#filter0_dddd_413_885)">
<path d="M45 5C36.735 5 30 11.735 30 20C30 28.265 36.735 35 45 35C53.265 35 60 28.265 60 20C60 11.735 53.265 5 45 5ZM52.17 16.55L43.665 25.055C43.455 25.265 43.17 25.385 42.87 25.385C42.57 25.385 42.285 25.265 42.075 25.055L37.83 20.81C37.395 20.375 37.395 19.655 37.83 19.22C38.265 18.785 38.985 18.785 39.42 19.22L42.87 22.67L50.58 14.96C51.015 14.525 51.735 14.525 52.17 14.96C52.605 15.395 52.605 16.1 52.17 16.55Z" fill="url(#paint0_linear_413_885)"/>
</g>
<defs>
<filter id="filter0_dddd_413_885" x="0" y="0" width="90" height="139" filterUnits="userSpaceOnUse" color-interpolation-filters="sRGB">
<feFlood flood-opacity="0" result="BackgroundImageFix"/>
<feColorMatrix in="SourceAlpha" type="matrix" values="0 0 0 0 0 0 0 0 0 0 0 0 0 0 0 0 0 0 127 0" result="hardAlpha"/>
<feOffset dy="5"/>
<feGaussianBlur stdDeviation="5"/>
<feColorMatrix type="matrix" values="0 0 0 0 0 0 0 0 0 0 0 0 0 0 0 0 0 0 0.1 0"/>
<feBlend mode="normal" in2="BackgroundImageFix" result="effect1_dropShadow_413_885"/>
<feColorMatrix in="SourceAlpha" type="matrix" values="0 0 0 0 0 0 0 0 0 0 0 0 0 0 0 0 0 0 127 0" result="hardAlpha"/>
<feOffset dy="19"/>
<feGaussianBlur stdDeviation="9.5"/>
<feColorMatrix type="matrix" values="0 0 0 0 0 0 0 0 0 0 0 0 0 0 0 0 0 0 0.09 0"/>
<feBlend mode="normal" in2="effect1_dropShadow_413_885" result="effect2_dropShadow_413_885"/>
<feColorMatrix in="SourceAlpha" type="matrix" values="0 0 0 0 0 0 0 0 0 0 0 0 0 0 0 0 0 0 127 0" result="hardAlpha"/>
<feOffset dy="42"/>
<feGaussianBlur stdDeviation="12.5"/>
<feColorMatrix type="matrix" values="0 0 0 0 0 0 0 0 0 0 0 0 0 0 0 0 0 0 0.05 0"/>
<feBlend mode="normal" in2="effect2_dropShadow_413_885" result="effect3_dropShadow_413_885"/>
<feColorMatrix in="SourceAlpha" type="matrix" values="0 0 0 0 0 0 0 0 0 0 0 0 0 0 0 0 0 0 127 0" result="hardAlpha"/>
<feOffset dy="74"/>
<feGaussianBlur stdDeviation="15"/>
<feColorMatrix type="matrix" values="0 0 0 0 0 0 0 0 0 0 0 0 0 0 0 0 0 0 0.01 0"/>
<feBlend mode="normal" in2="effect3_dropShadow_413_885" result="effect4_dropShadow_413_885"/>
<feBlend mode="normal" in="SourceGraphic" in2="effect4_dropShadow_413_885" result="shape"/>
</filter>
<linearGradient id="paint0_linear_413_885" x1="30" y1="20" x2="60" y2="20" gradientUnits="userSpaceOnUse">
<stop stop-color="#349E77"/>
<stop offset="1" stop-color="#57BC97"/>
</linearGradient>
</defs>
</svg>
