<svg width="121" height="74" viewBox="0 0 121 74" fill="none" xmlns="http://www.w3.org/2000/svg">
<path d="M30.9 73.2C25.1667 73.2 20.0333 71.8 15.5 69C10.9667 66.1333 7.4 62 4.8 56.6C2.2 51.2 0.9 44.6667 0.9 37C0.9 29.3333 2.2 22.8 4.8 17.4C7.4 12 10.9667 7.9 15.5 5.1C20.0333 2.23333 25.1667 0.799999 30.9 0.799999C36.7 0.799999 41.8333 2.23333 46.3 5.1C50.8333 7.9 54.4 12 57 17.4C59.6 22.8 60.9 29.3333 60.9 37C60.9 44.6667 59.6 51.2 57 56.6C54.4 62 50.8333 66.1333 46.3 69C41.8333 71.8 36.7 73.2 30.9 73.2ZM30.9 59.5C33.6333 59.5 36 58.7333 38 57.2C40.0667 55.6667 41.6667 53.2333 42.8 49.9C44 46.5667 44.6 42.2667 44.6 37C44.6 31.7333 44 27.4333 42.8 24.1C41.6667 20.7667 40.0667 18.3333 38 16.8C36 15.2667 33.6333 14.5 30.9 14.5C28.2333 14.5 25.8667 15.2667 23.8 16.8C21.8 18.3333 20.2 20.7667 19 24.1C17.8667 27.4333 17.3 31.7333 17.3 37C17.3 42.2667 17.8667 46.5667 19 49.9C20.2 53.2333 21.8 55.6667 23.8 57.2C25.8667 58.7333 28.2333 59.5 30.9 59.5ZM67.7805 72V61.5L94.7805 36C96.9138 34.0667 98.4805 32.3333 99.4805 30.8C100.48 29.2667 101.147 27.8667 101.48 26.6C101.88 25.3333 102.08 24.1667 102.08 23.1C102.08 20.3 101.114 18.1667 99.1805 16.7C97.3138 15.1667 94.5471 14.4 90.8805 14.4C87.9471 14.4 85.2138 14.9667 82.6805 16.1C80.2138 17.2333 78.1138 19 76.3805 21.4L64.5805 13.8C67.2471 9.8 70.9805 6.63333 75.7805 4.3C80.5805 1.96666 86.1138 0.799999 92.3805 0.799999C97.5805 0.799999 102.114 1.66666 105.98 3.4C109.914 5.06666 112.947 7.43333 115.08 10.5C117.28 13.5667 118.38 17.2333 118.38 21.5C118.38 23.7667 118.08 26.0333 117.48 28.3C116.947 30.5 115.814 32.8333 114.08 35.3C112.414 37.7667 109.947 40.5333 106.68 43.6L84.2805 64.7L81.1805 58.8H120.68V72H67.7805Z" fill="#E7E7E7"/>
</svg>
